# xmcd CD database file
#
# Track frame offsets:
#	150
#	22476
#	49717
#	56872
#	74683
#	96850
#	107133
#	144699
#	154867
#	179336
#
# Disc length: 2881 seconds
#
# Revision: 1
# Processed by: cddbd v1.5.2PL0 Copyright (c) Steve Scherf et al.
# Submitted via: CDex 1.70beta2
#
DISCID=9b0b3f0a
DTITLE=Johan Zakrisson - Aidee
DYEAR=2005
DGENRE=Jazz
TTITLE0=Entrance Gate
TTITLE1=Debugger
TTITLE2=Why Search II
TTITLE3=Imagine a Lake
TTITLE4=Maja
TTITLE5=Asymtote
TTITLE6=Nam Tog
TTITLE7=Moon 
TTITLE8=ID
TTITLE9=Square
EXTD=YEAR: 2005
EXTT0=
EXTT1=
EXTT2=
EXTT3=
EXTT4=
EXTT5=
EXTT6=
EXTT7=
EXTT8=
EXTT9=
PLAYORDER=
